_________________________  Visit us at _________________________
  
http://p2pdl.com  ____________________________  http://p2pdl.com


A Good Day to Die Hard 2013 BRRip 480p x264 - VYTO


Genre: Action | Crime | Thriller
Plot: John McClane travels to Russia to help out his seemingly wayward son, Jack, only to discover
that Jack is a CIA operative working to prevent a nuclear-weapons heist, causing the father and son
to team up against underworld forces.  
Director: John Moore
Stars: Bruce Willis, Jai Courtney, Sebastian Koch.
Rated: R for violence and language.


Info: 
http://www.imdb.com/title/tt1606378/

Trailer:


Format                         : MPEG-4
File size                      : 351 MiB
Duration                       : 1h 41mn
Overall bit rate               : 485 Kbps
Source                         : 720p.BluRay.x264-SPARKS

Video
Format                         : AVC
Bit rate                       : 443 Kbps
Width                          : 720 pixels
Height                         : 384 pixels
Display aspect ratio           : 1.85:1
Frame rate mode                : Constant
Frame rate                     : 23.976 fps
Stream size                    : 320 MiB (91%)
Writing library                : x264 core 130 r2273

Audio
Format                         : AAC
Bit rate                       : 40.0 Kbps
Channel(s)                     : 2 channels
Channel positions              : Front: L R
Sampling rate                  : 48.0 KHz
Stream size                    : 28.9 MiB (8%)
Language                       : English

Subtitle                       : Yes(English)
 
http://www.ultraimg.com/images/EUha7.png 
http://www.ultraimg.com/images/ycoYL.png 
http://www.ultraimg.com/images/73Fvz.png 
http://www.ultraimg.com/images/iGo0s.png 
http://www.ultraimg.com/images/89jUZ.png 
http://www.ultraimg.com/images/DmRZ.png


----------------------------------------------------------------------------------------------------


Encoded using revolutionary 10bit encoding, which enables us to provide you more crispier 
and sharper images at small sizes, just make sure you follow our instructions without a fault.
Recommend to you to use latest version of VLC player. Install K-Lite Codec Pack or shark007 codecs
in case of any kind of problem in playback (For non-VLC Media Player users). Alternatively, install
Core AVC codecs, the fastest decoder that there is coupled with Community Center Codec Pack and play
on Windows Media Player Classic. Check sample to be sure.
Enjoy!

Encoder Notes:Looking For Early Access To Anything You Can Provide DVDScr, R5, DVDR, BluRay, Direct
Audio, Music Releases and Seedboxes. We require dedicated servers, so as to do more 
and fast releases of movies.
If You Got anything to offer please contact us at "contact@p2pdl.com".

Face book Fan Page:   
http://www.fb.me/p2pdl